<svg xmlns="http://www.w3.org/2000/svg" version="1.1" xmlns:xlink="http://www.w3.org/1999/xlink" width="1000" height="1000"><style>
    #light-icon {
      display: inline;
    }
    #dark-icon {
      display: none;
    }

    @media (prefers-color-scheme: dark) {
      #light-icon {
        display: none;
      }
      #dark-icon {
        display: inline;
      }
    }
  </style><g id="light-icon"><svg xmlns="http://www.w3.org/2000/svg" version="1.1" xmlns:xlink="http://www.w3.org/1999/xlink" width="1000" height="1000"><g><g transform="matrix(5,0,0,5,0,0)"><svg xmlns="http://www.w3.org/2000/svg" version="1.1" xmlns:xlink="http://www.w3.org/1999/xlink" width="200" height="200"><svg t="1770043368115" class="icon" viewBox="0 0 1024 1024" version="1.1" xmlns="http://www.w3.org/2000/svg" p-id="8522" xmlns:xlink="http://www.w3.org/1999/xlink" width="200" height="200"><path d="M769.7408 416.256H134.656l-20.5824 58.5728-3.2768 9.3184h668.5696l-9.6256-67.8912z m27.136 191.5904h-360.448l13.9264 67.8912h356.352l-9.8304-67.8912z m-13.5168-95.744H100.864L77.1072 579.584l-0.1024 0.3072h715.8784l-9.5232-67.7888z m36.0448-286.9248l-107.9296 67.3792h204.8l98.0992-67.3792H819.4048z m-776.2944 450.56h331.1616l1.024-3.072 22.8352-64.8192H67.1744l-24.064 67.8912z m490.0864-450.56H202.0352l-23.6544 67.3792h330.9568l23.8592-67.3792zM9.5232 771.1744h331.1616l23.6544-67.6864H33.28L9.5232 771.1744z m446.5664-67.6864l14.5408 70.9632h350.208l-10.0352-70.9632H456.0896z m101.9904-315.0848h218.5216l98.9184-67.7888H666.8288L558.08 388.4032z m-58.4704-67.8912H168.3456l-23.8592 67.7888h331.0592l24.064-67.7888z" fill="#d81e06" p-id="8523"></path></svg></svg></g></g></svg></g><g id="dark-icon"><svg xmlns="http://www.w3.org/2000/svg" version="1.1" xmlns:xlink="http://www.w3.org/1999/xlink" width="1000" height="1000"><g clip-path="url(#SvgjsClipPath1006)"><rect width="1000" height="1000" fill="#ffffff"></rect><g transform="matrix(3.5,0,0,3.5,150,150)"><svg xmlns="http://www.w3.org/2000/svg" version="1.1" xmlns:xlink="http://www.w3.org/1999/xlink" width="200" height="200"><svg t="1770043368115" class="icon" viewBox="0 0 1024 1024" version="1.1" xmlns="http://www.w3.org/2000/svg" p-id="8522" xmlns:xlink="http://www.w3.org/1999/xlink" width="200" height="200"><path d="M769.7408 416.256H134.656l-20.5824 58.5728-3.2768 9.3184h668.5696l-9.6256-67.8912z m27.136 191.5904h-360.448l13.9264 67.8912h356.352l-9.8304-67.8912z m-13.5168-95.744H100.864L77.1072 579.584l-0.1024 0.3072h715.8784l-9.5232-67.7888z m36.0448-286.9248l-107.9296 67.3792h204.8l98.0992-67.3792H819.4048z m-776.2944 450.56h331.1616l1.024-3.072 22.8352-64.8192H67.1744l-24.064 67.8912z m490.0864-450.56H202.0352l-23.6544 67.3792h330.9568l23.8592-67.3792zM9.5232 771.1744h331.1616l23.6544-67.6864H33.28L9.5232 771.1744z m446.5664-67.6864l14.5408 70.9632h350.208l-10.0352-70.9632H456.0896z m101.9904-315.0848h218.5216l98.9184-67.7888H666.8288L558.08 388.4032z m-58.4704-67.8912H168.3456l-23.8592 67.7888h331.0592l24.064-67.7888z" fill="#d81e06" p-id="8523"></path></svg></svg></g></g><defs><clipPath id="SvgjsClipPath1006"><rect width="1000" height="1000" x="0" y="0" rx="350" ry="350"></rect></clipPath></defs></svg></g></svg>