<svg xmlns="http://www.w3.org/2000/svg" version="1.1" style="display: block;" viewBox="0 0 2048 2048" width="1000" height="1000"><path transform="translate(0,0)" fill="rgb(0,0,0)" d="M 711.059 338.024 C 769.796 337.642 823.365 352.564 872.205 385.803 C 942.21 433.446 988.006 507.524 1009.34 588.6 C 1015.52 612.062 1018.73 635.978 1023.22 659.781 C 1024.44 641.498 1028.21 622.706 1032.41 604.877 C 1049.7 531.618 1085.19 465.021 1139.62 412.653 C 1192.37 361.906 1263.5 336.807 1336.2 338.133 C 1334.21 387.178 1335.87 436.998 1335.86 486.121 L 1335.88 769.329 L 1335.95 884.994 C 1336.38 951.838 1338.62 1003.87 1316.51 1068.37 C 1292.54 1138.29 1245.55 1195.62 1198.16 1250.91 C 1119.87 1342.27 1080.12 1432.09 1089.49 1553.76 C 1140.12 1521.59 1192.83 1491.95 1244.76 1461.93 L 1404.81 1368.77 L 1535.76 1293.02 C 1556.18 1281.28 1576.31 1268.33 1597.41 1257.87 C 1596.28 1220.28 1597.18 1182.4 1597.18 1144.77 L 1597.18 932.57 L 1597.2 741.619 C 1597.2 704.138 1596.35 666.419 1597.77 628.968 C 1610.61 634.285 1622.83 642.075 1634.92 648.943 L 1694.7 683.167 C 1696.41 772.985 1694.85 863.121 1694.84 952.975 L 1694.63 1312.69 C 1686.83 1317.91 1678.31 1322.37 1670.19 1327.09 C 1603.91 1366.42 1537.22 1405.05 1470.12 1442.96 L 1305.1 1539.5 L 1148.61 1631 C 1115.95 1650.22 1083.61 1670.36 1050.16 1688.17 C 1036.66 1666.05 1024.63 1644.71 1007.35 1625.01 C 994.925 1610.84 980.2 1598.36 965.63 1586.45 C 918.626 1547.99 866.217 1517.41 822.95 1474.3 C 761.391 1412.27 722.88 1331.06 713.802 1244.14 C 709.816 1204.82 711.227 1165.11 711.263 1125.65 L 711.214 954.736 L 536.115 954.787 C 507.571 954.792 478.327 956.135 449.855 954.42 C 448.333 992.231 449.274 1030.35 449.281 1068.2 L 449.388 1284.31 C 449.435 1323.94 450.395 1363.72 449.278 1403.33 C 416.649 1385.05 384.862 1364.93 352.733 1345.77 C 351.294 1266.96 352.71 1187.82 352.692 1108.98 L 352.614 558.223 C 370.077 546.689 389.38 537.21 407.79 527.288 C 421.171 520.076 435.358 511.055 449.719 506.063 C 448.537 521.332 449.421 537.385 449.378 552.725 L 449.272 645.616 L 449.24 770.75 C 449.24 798.465 448.816 826.286 449.929 853.98 L 711.345 853.967 C 710.666 834.908 711.167 815.662 711.153 796.584 L 711.166 685.05 L 711.059 338.024 z M 927.096 754.751 C 930.242 667.059 920.588 570.588 858.144 502.98 C 843.565 487.195 825.833 472.231 807.107 461.515 C 807.153 461.885 807.204 462.253 807.246 462.623 C 809.608 483.417 807.579 506.228 807.48 527.28 L 807.426 646.026 L 807.578 1067.14 L 807.575 1155.59 C 807.599 1198.23 807.078 1239.51 819.295 1280.86 C 838.797 1346.87 879.22 1398.82 932.185 1441.6 C 949.316 1455.44 978.136 1479.33 997.118 1488.71 C 1000.86 1394.89 1027.33 1317.88 1083.06 1241.41 C 1111.1 1202.94 1142.81 1167.27 1171.84 1129.55 C 1199.74 1092.42 1222.84 1050.89 1232.94 1005.17 C 1240.8 969.573 1240.02 933.875 1240.01 897.657 L 1239.98 800.899 L 1239.41 461.063 C 1225.8 471.912 1211.22 480.459 1198.59 492.707 C 1153.11 536.801 1130.08 602.598 1123.11 664.506 C 1119.72 694.575 1119.04 724.477 1119.25 754.718 C 1055.26 756.013 991.1 754.745 927.096 754.751 z"></path><path transform="translate(0,0)" fill="rgb(174,182,170)" fill-opacity="0.0392157" d="M 3.9044 2048 C 15.1919 2045.15 30.51 2046.99 42.3606 2046.97 L 121.46 2046.93 L 454.263 2047.02 L 1686.33 2047 L 1956.72 2046.98 C 1969.64 2047 2033.56 2045.18 2042.18 2048 L 3.9044 2048 z"></path><path transform="translate(0,0)" fill="rgb(185,183,184)" fill-opacity="0.105882" d="M 0 1032.84 L 0.751336 1032.66 C 1.85234 1062.51 1.07847 1092.63 1.07352 1122.51 L 1.10407 1280.78 L 1.03744 1771.7 L 1.01637 1961.18 C 1.03511 1976.23 3.33724 2031.93 0 2043.37 L 0 1032.84 z"></path><path transform="translate(0,0)" fill="rgb(185,183,184)" fill-opacity="0.113725" d="M 0 2.69771 C 3.23707 13.8073 1.16394 51.3926 1.13354 64.5802 L 1.06129 175.966 L 0.949905 743.485 L 0.981831 938.011 L 1.02444 999.875 C 1.02972 1010.66 1.68621 1021.94 0.751336 1032.66 L 0 1032.84 L 0 2.69771 z"></path><path transform="translate(0,0)" fill="rgb(125,119,121)" fill-opacity="0.0352941" d="M 556.715 0 L 1675 0 L 1674.99 1.15751 L 948.607 0.68058 L 696.766 0.820553 L 605.964 0.911389 C 590.727 0.97926 575.168 1.95103 559.978 1.31666 C 558.602 1.25917 557.788 0.812524 556.715 0 z"></path><path transform="translate(0,0)" fill="rgb(185,183,184)" fill-opacity="0.0588235" d="M 1675 0 L 2042.64 0 C 2031.11 2.68682 1987.53 0.8783 1972.06 0.93902 L 1765.01 0.992968 L 1707.48 0.846499 C 1696.92 0.769768 1685.4 -0.25612 1674.99 1.15751 L 1675 0 z"></path><path transform="translate(0,0)" fill="rgb(185,183,184)" fill-opacity="0.0627451" d="M 240.715 0 L 553.495 0 C 552.343 0.822334 551.49 1.17428 550.022 1.29985 C 541.909 1.99402 533.097 1.08877 524.893 1.00723 L 475.488 0.928718 L 304.007 1.05698 C 296.874 1.07149 244.28 2.5681 240.715 0 z"></path><path transform="translate(0,0)" fill="rgb(185,183,184)" fill-opacity="0.0588235" d="M 8.25812 0 L 237.495 0 C 236.945 0.390158 236.701 0.608145 236.008 0.852164 C 231.508 2.43614 9.80264 0.657211 8.25812 0 z"></path></svg>